<mxfile host="app.diagrams.net" modified="2024-02-06T08:16:24.816Z" agent="Mozilla/5.0 (Windows NT 10.0; Win64; x64) AppleWebKit/537.36 (KHTML, like Gecko) Chrome/121.0.0.0 Safari/537.36" etag="-INEcc8SRXseff9P3R5m" version="23.1.1" type="github">
  <diagram name="Page-1" id="vj_6rOLFEMqlc9JGQvsP">
    <mxGraphModel dx="677" dy="1434" grid="1" gridSize="10" guides="1" tooltips="1" connect="1" arrows="1" fold="1" page="1" pageScale="1" pageWidth="850" pageHeight="1100" math="0" shadow="0">
      <root>
        <mxCell id="0" />
        <mxCell id="1" parent="0" />
        <mxCell id="BeizXfCLZa2Nw2d3fyr6-8" value="Perusahaan" style="rounded=0;whiteSpace=wrap;html=1;" vertex="1" parent="1">
          <mxGeometry x="395" y="-250" width="120" height="60" as="geometry" />
        </mxCell>
        <mxCell id="BeizXfCLZa2Nw2d3fyr6-9" value="" style="group" vertex="1" connectable="0" parent="1">
          <mxGeometry x="130" y="100" width="505" height="180" as="geometry" />
        </mxCell>
        <mxCell id="BeizXfCLZa2Nw2d3fyr6-1" value="Film" style="rounded=0;whiteSpace=wrap;html=1;" vertex="1" parent="BeizXfCLZa2Nw2d3fyr6-9">
          <mxGeometry x="265" y="120" width="120" height="60" as="geometry" />
        </mxCell>
        <mxCell id="BeizXfCLZa2Nw2d3fyr6-2" value="&lt;u&gt;Judul&lt;/u&gt;" style="ellipse;whiteSpace=wrap;html=1;" vertex="1" parent="BeizXfCLZa2Nw2d3fyr6-9">
          <mxGeometry x="145" width="120" height="60" as="geometry" />
        </mxCell>
        <mxCell id="BeizXfCLZa2Nw2d3fyr6-3" value="&lt;u&gt;Tahun Rilis&lt;/u&gt;" style="ellipse;whiteSpace=wrap;html=1;" vertex="1" parent="BeizXfCLZa2Nw2d3fyr6-9">
          <mxGeometry x="385" width="120" height="60" as="geometry" />
        </mxCell>
        <mxCell id="BeizXfCLZa2Nw2d3fyr6-6" value="Durasi" style="ellipse;whiteSpace=wrap;html=1;" vertex="1" parent="BeizXfCLZa2Nw2d3fyr6-9">
          <mxGeometry width="120" height="60" as="geometry" />
        </mxCell>
        <mxCell id="BeizXfCLZa2Nw2d3fyr6-5" style="edgeStyle=orthogonalEdgeStyle;rounded=0;orthogonalLoop=1;jettySize=auto;html=1;entryX=0.25;entryY=0;entryDx=0;entryDy=0;" edge="1" parent="BeizXfCLZa2Nw2d3fyr6-9" source="BeizXfCLZa2Nw2d3fyr6-2" target="BeizXfCLZa2Nw2d3fyr6-1">
          <mxGeometry relative="1" as="geometry" />
        </mxCell>
        <mxCell id="BeizXfCLZa2Nw2d3fyr6-4" style="edgeStyle=orthogonalEdgeStyle;rounded=0;orthogonalLoop=1;jettySize=auto;html=1;entryX=0.75;entryY=0;entryDx=0;entryDy=0;" edge="1" parent="BeizXfCLZa2Nw2d3fyr6-9" source="BeizXfCLZa2Nw2d3fyr6-3" target="BeizXfCLZa2Nw2d3fyr6-1">
          <mxGeometry relative="1" as="geometry" />
        </mxCell>
        <mxCell id="BeizXfCLZa2Nw2d3fyr6-7" style="edgeStyle=orthogonalEdgeStyle;rounded=0;orthogonalLoop=1;jettySize=auto;html=1;entryX=0;entryY=0.5;entryDx=0;entryDy=0;" edge="1" parent="BeizXfCLZa2Nw2d3fyr6-9" source="BeizXfCLZa2Nw2d3fyr6-6" target="BeizXfCLZa2Nw2d3fyr6-1">
          <mxGeometry relative="1" as="geometry">
            <Array as="points">
              <mxPoint x="220" y="240" />
            </Array>
          </mxGeometry>
        </mxCell>
        <mxCell id="BeizXfCLZa2Nw2d3fyr6-10" value="&lt;u&gt;Nama&lt;/u&gt;" style="ellipse;whiteSpace=wrap;html=1;" vertex="1" parent="1">
          <mxGeometry x="200" y="-230" width="120" height="60" as="geometry" />
        </mxCell>
        <mxCell id="BeizXfCLZa2Nw2d3fyr6-12" style="edgeStyle=orthogonalEdgeStyle;rounded=0;orthogonalLoop=1;jettySize=auto;html=1;entryX=1;entryY=0.5;entryDx=0;entryDy=0;" edge="1" parent="1" source="BeizXfCLZa2Nw2d3fyr6-11" target="BeizXfCLZa2Nw2d3fyr6-8">
          <mxGeometry relative="1" as="geometry" />
        </mxCell>
        <mxCell id="BeizXfCLZa2Nw2d3fyr6-11" value="&lt;u&gt;Alamat&lt;/u&gt;" style="ellipse;whiteSpace=wrap;html=1;" vertex="1" parent="1">
          <mxGeometry x="550" y="-230" width="120" height="60" as="geometry" />
        </mxCell>
        <mxCell id="BeizXfCLZa2Nw2d3fyr6-13" style="edgeStyle=orthogonalEdgeStyle;rounded=0;orthogonalLoop=1;jettySize=auto;html=1;entryX=-0.008;entryY=0.633;entryDx=0;entryDy=0;entryPerimeter=0;" edge="1" parent="1" source="BeizXfCLZa2Nw2d3fyr6-10" target="BeizXfCLZa2Nw2d3fyr6-8">
          <mxGeometry relative="1" as="geometry" />
        </mxCell>
        <mxCell id="BeizXfCLZa2Nw2d3fyr6-19" value="Artis" style="whiteSpace=wrap;html=1;align=center;" vertex="1" parent="1">
          <mxGeometry x="400" y="460" width="100" height="40" as="geometry" />
        </mxCell>
        <mxCell id="BeizXfCLZa2Nw2d3fyr6-23" style="edgeStyle=orthogonalEdgeStyle;rounded=0;orthogonalLoop=1;jettySize=auto;html=1;entryX=0;entryY=0.5;entryDx=0;entryDy=0;" edge="1" parent="1" source="BeizXfCLZa2Nw2d3fyr6-20" target="BeizXfCLZa2Nw2d3fyr6-19">
          <mxGeometry relative="1" as="geometry">
            <Array as="points">
              <mxPoint x="375" y="480" />
            </Array>
          </mxGeometry>
        </mxCell>
        <mxCell id="BeizXfCLZa2Nw2d3fyr6-20" value="&lt;u&gt;Nama&lt;/u&gt;" style="ellipse;whiteSpace=wrap;html=1;align=center;" vertex="1" parent="1">
          <mxGeometry x="260" y="460" width="100" height="40" as="geometry" />
        </mxCell>
        <mxCell id="BeizXfCLZa2Nw2d3fyr6-22" style="edgeStyle=orthogonalEdgeStyle;rounded=0;orthogonalLoop=1;jettySize=auto;html=1;entryX=1;entryY=0.5;entryDx=0;entryDy=0;" edge="1" parent="1" source="BeizXfCLZa2Nw2d3fyr6-21" target="BeizXfCLZa2Nw2d3fyr6-19">
          <mxGeometry relative="1" as="geometry">
            <Array as="points">
              <mxPoint x="550" y="480" />
              <mxPoint x="550" y="480" />
            </Array>
          </mxGeometry>
        </mxCell>
        <mxCell id="BeizXfCLZa2Nw2d3fyr6-21" value="&lt;u&gt;Tanggal Lahir&lt;/u&gt;" style="ellipse;whiteSpace=wrap;html=1;align=center;" vertex="1" parent="1">
          <mxGeometry x="550" y="450" width="100" height="40" as="geometry" />
        </mxCell>
        <mxCell id="BeizXfCLZa2Nw2d3fyr6-26" style="edgeStyle=orthogonalEdgeStyle;rounded=0;orthogonalLoop=1;jettySize=auto;html=1;entryX=0.5;entryY=0;entryDx=0;entryDy=0;" edge="1" parent="1" source="BeizXfCLZa2Nw2d3fyr6-24" target="BeizXfCLZa2Nw2d3fyr6-1">
          <mxGeometry relative="1" as="geometry" />
        </mxCell>
        <mxCell id="BeizXfCLZa2Nw2d3fyr6-27" value="" style="edgeStyle=orthogonalEdgeStyle;rounded=0;orthogonalLoop=1;jettySize=auto;html=1;" edge="1" parent="1" source="BeizXfCLZa2Nw2d3fyr6-24" target="BeizXfCLZa2Nw2d3fyr6-8">
          <mxGeometry relative="1" as="geometry" />
        </mxCell>
        <mxCell id="BeizXfCLZa2Nw2d3fyr6-24" value="Memproduksi" style="shape=rhombus;double=1;perimeter=rhombusPerimeter;whiteSpace=wrap;html=1;align=center;" vertex="1" parent="1">
          <mxGeometry x="395" y="-80" width="120" height="60" as="geometry" />
        </mxCell>
        <mxCell id="BeizXfCLZa2Nw2d3fyr6-29" style="edgeStyle=orthogonalEdgeStyle;rounded=0;orthogonalLoop=1;jettySize=auto;html=1;" edge="1" parent="1" source="BeizXfCLZa2Nw2d3fyr6-28">
          <mxGeometry relative="1" as="geometry">
            <mxPoint x="450" y="280" as="targetPoint" />
          </mxGeometry>
        </mxCell>
        <mxCell id="BeizXfCLZa2Nw2d3fyr6-30" value="" style="edgeStyle=orthogonalEdgeStyle;rounded=0;orthogonalLoop=1;jettySize=auto;html=1;" edge="1" parent="1" source="BeizXfCLZa2Nw2d3fyr6-28" target="BeizXfCLZa2Nw2d3fyr6-19">
          <mxGeometry relative="1" as="geometry" />
        </mxCell>
        <mxCell id="BeizXfCLZa2Nw2d3fyr6-28" value="Memerankan" style="shape=rhombus;double=1;perimeter=rhombusPerimeter;whiteSpace=wrap;html=1;align=center;" vertex="1" parent="1">
          <mxGeometry x="390" y="330" width="120" height="60" as="geometry" />
        </mxCell>
        <mxCell id="BeizXfCLZa2Nw2d3fyr6-32" style="edgeStyle=orthogonalEdgeStyle;rounded=0;orthogonalLoop=1;jettySize=auto;html=1;entryX=0.5;entryY=1;entryDx=0;entryDy=0;" edge="1" parent="1" source="BeizXfCLZa2Nw2d3fyr6-31" target="BeizXfCLZa2Nw2d3fyr6-19">
          <mxGeometry relative="1" as="geometry" />
        </mxCell>
        <mxCell id="BeizXfCLZa2Nw2d3fyr6-31" value="Peran" style="ellipse;shape=doubleEllipse;margin=3;whiteSpace=wrap;html=1;align=center;" vertex="1" parent="1">
          <mxGeometry x="250" y="520" width="100" height="40" as="geometry" />
        </mxCell>
        <mxCell id="BeizXfCLZa2Nw2d3fyr6-42" style="edgeStyle=orthogonalEdgeStyle;rounded=0;orthogonalLoop=1;jettySize=auto;html=1;entryX=1;entryY=0.5;entryDx=0;entryDy=0;" edge="1" parent="1" source="BeizXfCLZa2Nw2d3fyr6-33" target="BeizXfCLZa2Nw2d3fyr6-41">
          <mxGeometry relative="1" as="geometry">
            <mxPoint x="690" y="-50" as="targetPoint" />
          </mxGeometry>
        </mxCell>
        <mxCell id="BeizXfCLZa2Nw2d3fyr6-33" value="Sutradara Film" style="whiteSpace=wrap;html=1;align=center;" vertex="1" parent="1">
          <mxGeometry x="405" y="-440" width="100" height="40" as="geometry" />
        </mxCell>
        <mxCell id="BeizXfCLZa2Nw2d3fyr6-37" style="edgeStyle=orthogonalEdgeStyle;rounded=0;orthogonalLoop=1;jettySize=auto;html=1;" edge="1" parent="1" source="BeizXfCLZa2Nw2d3fyr6-34">
          <mxGeometry relative="1" as="geometry">
            <mxPoint x="400" y="-410" as="targetPoint" />
          </mxGeometry>
        </mxCell>
        <mxCell id="BeizXfCLZa2Nw2d3fyr6-34" value="Nama" style="ellipse;whiteSpace=wrap;html=1;align=center;fontStyle=4;" vertex="1" parent="1">
          <mxGeometry x="250" y="-430" width="100" height="40" as="geometry" />
        </mxCell>
        <mxCell id="BeizXfCLZa2Nw2d3fyr6-36" style="edgeStyle=orthogonalEdgeStyle;rounded=0;orthogonalLoop=1;jettySize=auto;html=1;entryX=0;entryY=0.25;entryDx=0;entryDy=0;" edge="1" parent="1" source="BeizXfCLZa2Nw2d3fyr6-35" target="BeizXfCLZa2Nw2d3fyr6-33">
          <mxGeometry relative="1" as="geometry" />
        </mxCell>
        <mxCell id="BeizXfCLZa2Nw2d3fyr6-35" value="Tanggal Lahir" style="ellipse;whiteSpace=wrap;html=1;align=center;fontStyle=4;" vertex="1" parent="1">
          <mxGeometry x="250" y="-520" width="100" height="40" as="geometry" />
        </mxCell>
        <mxCell id="BeizXfCLZa2Nw2d3fyr6-39" style="edgeStyle=orthogonalEdgeStyle;rounded=0;orthogonalLoop=1;jettySize=auto;html=1;entryX=0.5;entryY=1;entryDx=0;entryDy=0;" edge="1" parent="1" source="BeizXfCLZa2Nw2d3fyr6-38" target="BeizXfCLZa2Nw2d3fyr6-33">
          <mxGeometry relative="1" as="geometry" />
        </mxCell>
        <mxCell id="BeizXfCLZa2Nw2d3fyr6-38" value="Peran" style="ellipse;whiteSpace=wrap;html=1;align=center;dashed=1;" vertex="1" parent="1">
          <mxGeometry x="250" y="-340" width="100" height="40" as="geometry" />
        </mxCell>
        <mxCell id="BeizXfCLZa2Nw2d3fyr6-43" style="edgeStyle=orthogonalEdgeStyle;rounded=0;orthogonalLoop=1;jettySize=auto;html=1;entryX=1;entryY=0.5;entryDx=0;entryDy=0;" edge="1" parent="1" source="BeizXfCLZa2Nw2d3fyr6-41" target="BeizXfCLZa2Nw2d3fyr6-1">
          <mxGeometry relative="1" as="geometry">
            <Array as="points">
              <mxPoint x="660" y="250" />
            </Array>
          </mxGeometry>
        </mxCell>
        <mxCell id="BeizXfCLZa2Nw2d3fyr6-41" value="Menyutradari" style="shape=rhombus;double=1;perimeter=rhombusPerimeter;whiteSpace=wrap;html=1;align=center;" vertex="1" parent="1">
          <mxGeometry x="560" y="-80" width="120" height="60" as="geometry" />
        </mxCell>
        <mxCell id="BeizXfCLZa2Nw2d3fyr6-44" value="Genre" style="ellipse;shape=doubleEllipse;margin=3;whiteSpace=wrap;html=1;align=center;" vertex="1" parent="1">
          <mxGeometry x="550" y="290" width="100" height="40" as="geometry" />
        </mxCell>
        <mxCell id="BeizXfCLZa2Nw2d3fyr6-45" style="edgeStyle=orthogonalEdgeStyle;rounded=0;orthogonalLoop=1;jettySize=auto;html=1;entryX=0.856;entryY=0.994;entryDx=0;entryDy=0;entryPerimeter=0;" edge="1" parent="1" source="BeizXfCLZa2Nw2d3fyr6-44" target="BeizXfCLZa2Nw2d3fyr6-1">
          <mxGeometry relative="1" as="geometry" />
        </mxCell>
        <mxCell id="BeizXfCLZa2Nw2d3fyr6-46" value="M" style="text;html=1;strokeColor=none;fillColor=none;align=center;verticalAlign=middle;whiteSpace=wrap;rounded=0;" vertex="1" parent="1">
          <mxGeometry x="430" y="380" width="60" height="30" as="geometry" />
        </mxCell>
        <mxCell id="BeizXfCLZa2Nw2d3fyr6-47" value="M" style="text;html=1;strokeColor=none;fillColor=none;align=center;verticalAlign=middle;whiteSpace=wrap;rounded=0;" vertex="1" parent="1">
          <mxGeometry x="430" y="300" width="60" height="30" as="geometry" />
        </mxCell>
        <mxCell id="BeizXfCLZa2Nw2d3fyr6-48" value="M" style="text;html=1;strokeColor=none;fillColor=none;align=center;verticalAlign=middle;whiteSpace=wrap;rounded=0;" vertex="1" parent="1">
          <mxGeometry x="440" y="-20" width="60" height="30" as="geometry" />
        </mxCell>
        <mxCell id="BeizXfCLZa2Nw2d3fyr6-49" value="1" style="text;html=1;strokeColor=none;fillColor=none;align=center;verticalAlign=middle;whiteSpace=wrap;rounded=0;" vertex="1" parent="1">
          <mxGeometry x="440" y="-110" width="60" height="30" as="geometry" />
        </mxCell>
        <mxCell id="BeizXfCLZa2Nw2d3fyr6-50" value="M" style="text;html=1;strokeColor=none;fillColor=none;align=center;verticalAlign=middle;whiteSpace=wrap;rounded=0;" vertex="1" parent="1">
          <mxGeometry x="610" y="-30" width="60" height="30" as="geometry" />
        </mxCell>
        <mxCell id="BeizXfCLZa2Nw2d3fyr6-51" value="M" style="text;html=1;strokeColor=none;fillColor=none;align=center;verticalAlign=middle;whiteSpace=wrap;rounded=0;" vertex="1" parent="1">
          <mxGeometry x="640" y="-90" width="60" height="30" as="geometry" />
        </mxCell>
      </root>
    </mxGraphModel>
  </diagram>
</mxfile>
